<svg xmlns="http://www.w3.org/2000/svg" xmlns:xlink="http://www.w3.org/1999/xlink" width="1000" zoomAndPan="magnify" viewBox="0 0 750 749.999995" height="1000" preserveAspectRatio="xMidYMid meet" version="1.0"><defs><g/><clipPath id="c20b7d9d7b"><path d="M 128.445312 136.601562 L 621.195312 136.601562 L 621.195312 627.101562 L 128.445312 627.101562 Z M 128.445312 136.601562 " clip-rule="nonzero"/></clipPath><clipPath id="5a8f7b13ae"><rect x="0" width="457" y="0" height="171"/></clipPath><clipPath id="dc4910d184"><rect x="0" width="494" y="0" height="187"/></clipPath></defs><rect x="-75" width="900" fill="#ffffff" y="-74.999999" height="899.999994" fill-opacity="1"/><rect x="-75" width="900" fill="#ffffff" y="-74.999999" height="899.999994" fill-opacity="1"/><path fill="#000082" d="M 377.089844 184.015625 L 321.933594 280.972656 L 375.1875 376.03125 L 493.101562 376.03125 L 546.355469 282.875 L 434.144531 280.972656 Z M 377.089844 184.015625 " fill-opacity="1" fill-rule="nonzero"/><path fill="#000082" d="M 207.441406 479.757812 L 318.128906 480.597656 L 367.578125 379.835938 L 314.328125 282.875 L 205.921875 282.875 L 259.972656 380.289062 Z M 207.441406 479.757812 " fill-opacity="1" fill-rule="nonzero"/><path fill="#000082" d="M 548.257812 480.597656 L 493.101562 383.636719 L 373.570312 384.511719 L 323.835938 484.398438 L 377.089844 577.554688 L 432.242188 482.496094 Z M 548.257812 480.597656 " fill-opacity="1" fill-rule="nonzero"/><path fill="#000082" d="M 478.171875 235.195312 C 478.171875 236 478.132812 236.804688 478.054688 237.605469 C 477.976562 238.40625 477.859375 239.203125 477.699219 239.992188 C 477.542969 240.785156 477.347656 241.5625 477.113281 242.335938 C 476.878906 243.105469 476.609375 243.863281 476.300781 244.609375 C 475.992188 245.351562 475.648438 246.082031 475.265625 246.789062 C 474.886719 247.5 474.472656 248.191406 474.027344 248.863281 C 473.578125 249.53125 473.097656 250.179688 472.585938 250.800781 C 472.074219 251.421875 471.535156 252.019531 470.964844 252.589844 C 470.394531 253.160156 469.796875 253.699219 469.175781 254.210938 C 468.550781 254.722656 467.90625 255.203125 467.234375 255.648438 C 466.566406 256.097656 465.875 256.511719 465.164062 256.890625 C 464.453125 257.269531 463.726562 257.613281 462.980469 257.921875 C 462.234375 258.230469 461.476562 258.5 460.707031 258.734375 C 459.9375 258.96875 459.15625 259.164062 458.363281 259.324219 C 457.574219 259.480469 456.777344 259.597656 455.976562 259.675781 C 455.171875 259.753906 454.367188 259.796875 453.5625 259.796875 C 452.757812 259.796875 451.953125 259.753906 451.152344 259.675781 C 450.347656 259.597656 449.550781 259.480469 448.761719 259.324219 C 447.972656 259.164062 447.191406 258.96875 446.417969 258.734375 C 445.648438 258.5 444.890625 258.230469 444.144531 257.921875 C 443.398438 257.613281 442.671875 257.269531 441.960938 256.890625 C 441.25 256.511719 440.558594 256.097656 439.890625 255.648438 C 439.21875 255.203125 438.574219 254.722656 437.949219 254.210938 C 437.328125 253.699219 436.730469 253.160156 436.160156 252.589844 C 435.589844 252.019531 435.050781 251.421875 434.539062 250.800781 C 434.027344 250.179688 433.546875 249.53125 433.101562 248.863281 C 432.652344 248.191406 432.238281 247.5 431.859375 246.789062 C 431.480469 246.082031 431.132812 245.351562 430.824219 244.609375 C 430.519531 243.863281 430.246094 243.105469 430.011719 242.335938 C 429.777344 241.5625 429.582031 240.785156 429.425781 239.992188 C 429.269531 239.203125 429.152344 238.40625 429.070312 237.605469 C 428.992188 236.804688 428.953125 236 428.953125 235.195312 C 428.953125 234.386719 428.992188 233.585938 429.070312 232.78125 C 429.152344 231.980469 429.269531 231.183594 429.425781 230.394531 C 429.582031 229.605469 429.777344 228.824219 430.011719 228.054688 C 430.246094 227.28125 430.519531 226.523438 430.824219 225.78125 C 431.132812 225.035156 431.480469 224.308594 431.859375 223.597656 C 432.238281 222.886719 432.652344 222.195312 433.101562 221.527344 C 433.546875 220.855469 434.027344 220.210938 434.539062 219.585938 C 435.050781 218.964844 435.589844 218.367188 436.160156 217.796875 C 436.730469 217.230469 437.328125 216.6875 437.949219 216.175781 C 438.574219 215.667969 439.21875 215.1875 439.890625 214.738281 C 440.558594 214.292969 441.25 213.878906 441.960938 213.496094 C 442.671875 213.117188 443.398438 212.773438 444.144531 212.464844 C 444.890625 212.15625 445.648438 211.886719 446.417969 211.652344 C 447.191406 211.417969 447.972656 211.222656 448.761719 211.066406 C 449.550781 210.910156 450.347656 210.789062 451.152344 210.710938 C 451.953125 210.632812 452.757812 210.59375 453.5625 210.59375 C 454.367188 210.59375 455.171875 210.632812 455.976562 210.710938 C 456.777344 210.789062 457.574219 210.910156 458.363281 211.066406 C 459.15625 211.222656 459.9375 211.417969 460.707031 211.652344 C 461.476562 211.886719 462.234375 212.15625 462.980469 212.464844 C 463.726562 212.773438 464.453125 213.117188 465.164062 213.496094 C 465.875 213.878906 466.566406 214.292969 467.234375 214.738281 C 467.90625 215.1875 468.550781 215.667969 469.175781 216.175781 C 469.796875 216.6875 470.394531 217.230469 470.964844 217.796875 C 471.535156 218.367188 472.074219 218.964844 472.585938 219.585938 C 473.097656 220.210938 473.578125 220.855469 474.027344 221.527344 C 474.472656 222.195312 474.886719 222.886719 475.265625 223.597656 C 475.648438 224.308594 475.992188 225.035156 476.300781 225.78125 C 476.609375 226.523438 476.878906 227.28125 477.113281 228.054688 C 477.347656 228.824219 477.542969 229.605469 477.699219 230.394531 C 477.859375 231.183594 477.976562 231.980469 478.054688 232.78125 C 478.132812 233.585938 478.171875 234.386719 478.171875 235.195312 Z M 478.171875 235.195312 " fill-opacity="1" fill-rule="nonzero"/><path fill="#000082" d="M 478.171875 521.394531 C 478.171875 522.199219 478.132812 523.003906 478.054688 523.804688 C 477.976562 524.609375 477.859375 525.40625 477.699219 526.195312 C 477.542969 526.984375 477.347656 527.765625 477.113281 528.535156 C 476.878906 529.308594 476.609375 530.066406 476.300781 530.808594 C 475.992188 531.554688 475.648438 532.28125 475.265625 532.992188 C 474.886719 533.703125 474.472656 534.394531 474.027344 535.0625 C 473.578125 535.734375 473.097656 536.378906 472.585938 537 C 472.074219 537.625 471.535156 538.222656 470.964844 538.789062 C 470.394531 539.359375 469.796875 539.902344 469.175781 540.410156 C 468.550781 540.921875 467.90625 541.402344 467.234375 541.851562 C 466.566406 542.296875 465.875 542.710938 465.164062 543.089844 C 464.453125 543.472656 463.726562 543.816406 462.980469 544.125 C 462.234375 544.433594 461.476562 544.703125 460.707031 544.9375 C 459.9375 545.171875 459.15625 545.367188 458.363281 545.523438 C 457.574219 545.679688 456.777344 545.796875 455.976562 545.878906 C 455.171875 545.957031 454.367188 545.996094 453.5625 545.996094 C 452.757812 545.996094 451.953125 545.957031 451.152344 545.878906 C 450.347656 545.796875 449.550781 545.679688 448.761719 545.523438 C 447.972656 545.367188 447.191406 545.171875 446.417969 544.9375 C 445.648438 544.703125 444.890625 544.433594 444.144531 544.125 C 443.398438 543.816406 442.671875 543.472656 441.960938 543.089844 C 441.25 542.710938 440.558594 542.296875 439.890625 541.851562 C 439.21875 541.402344 438.574219 540.921875 437.949219 540.410156 C 437.328125 539.902344 436.730469 539.359375 436.160156 538.789062 C 435.589844 538.222656 435.050781 537.625 434.539062 537 C 434.027344 536.378906 433.546875 535.734375 433.101562 535.0625 C 432.652344 534.394531 432.238281 533.703125 431.859375 532.992188 C 431.480469 532.28125 431.132812 531.554688 430.824219 530.808594 C 430.519531 530.066406 430.246094 529.308594 430.011719 528.535156 C 429.777344 527.765625 429.582031 526.984375 429.425781 526.195312 C 429.269531 525.40625 429.152344 524.609375 429.070312 523.804688 C 428.992188 523.003906 428.953125 522.199219 428.953125 521.394531 C 428.953125 520.589844 428.992188 519.785156 429.070312 518.984375 C 429.152344 518.183594 429.269531 517.386719 429.425781 516.59375 C 429.582031 515.804688 429.777344 515.023438 430.011719 514.253906 C 430.246094 513.484375 430.519531 512.726562 430.824219 511.980469 C 431.132812 511.234375 431.480469 510.507812 431.859375 509.796875 C 432.238281 509.085938 432.652344 508.398438 433.101562 507.726562 C 433.546875 507.058594 434.027344 506.410156 434.539062 505.789062 C 435.050781 505.164062 435.589844 504.570312 436.160156 504 C 436.730469 503.429688 437.328125 502.890625 437.949219 502.378906 C 438.574219 501.867188 439.21875 501.386719 439.890625 500.941406 C 440.558594 500.492188 441.25 500.078125 441.960938 499.699219 C 442.671875 499.320312 443.398438 498.976562 444.144531 498.667969 C 444.890625 498.359375 445.648438 498.085938 446.417969 497.851562 C 447.191406 497.621094 447.972656 497.425781 448.761719 497.265625 C 449.550781 497.109375 450.347656 496.992188 451.152344 496.914062 C 451.953125 496.832031 452.757812 496.792969 453.5625 496.792969 C 454.367188 496.792969 455.171875 496.832031 455.976562 496.914062 C 456.777344 496.992188 457.574219 497.109375 458.363281 497.265625 C 459.15625 497.425781 459.9375 497.621094 460.707031 497.851562 C 461.476562 498.085938 462.234375 498.359375 462.980469 498.667969 C 463.726562 498.976562 464.453125 499.320312 465.164062 499.699219 C 465.875 500.078125 466.566406 500.492188 467.234375 500.941406 C 467.90625 501.386719 468.550781 501.867188 469.175781 502.378906 C 469.796875 502.890625 470.394531 503.429688 470.964844 504 C 471.535156 504.570312 472.074219 505.164062 472.585938 505.789062 C 473.097656 506.410156 473.578125 507.058594 474.027344 507.726562 C 474.472656 508.398438 474.886719 509.085938 475.265625 509.796875 C 475.648438 510.507812 475.992188 511.234375 476.300781 511.980469 C 476.609375 512.726562 476.878906 513.484375 477.113281 514.253906 C 477.347656 515.023438 477.542969 515.804688 477.699219 516.59375 C 477.859375 517.386719 477.976562 518.183594 478.054688 518.984375 C 478.132812 519.785156 478.171875 520.589844 478.171875 521.394531 Z M 478.171875 521.394531 " fill-opacity="1" fill-rule="nonzero"/><g clip-path="url(#c20b7d9d7b)"><path stroke-linecap="butt" transform="matrix(1.901874, 0, 0, 1.901163, -835.413245, 136.599798)" fill="none" stroke-linejoin="miter" d="M 752.15023 128.189341 C 752.15023 130.116616 752.10299 132.04389 752.008511 133.967055 C 751.914032 135.892275 751.772313 137.813386 751.583355 139.732442 C 751.394397 141.649443 751.158199 143.56028 750.874761 145.467008 C 750.593378 147.373736 750.262701 149.272245 749.886838 151.162536 C 749.510975 153.052826 749.089927 154.930789 748.621639 156.800533 C 748.153351 158.670277 747.639877 160.527693 747.079164 162.370726 C 746.520504 164.215814 745.916659 166.044465 745.267628 167.858733 C 744.616544 169.673001 743.924381 171.470832 743.187033 173.25017 C 742.449685 175.031564 741.669205 176.792411 740.845593 178.534765 C 740.019927 180.27712 739.155237 181.996874 738.245362 183.696081 C 737.337541 185.397342 736.388641 187.071893 735.39661 188.725897 C 734.406633 190.377847 733.375577 192.005141 732.305498 193.607778 C 731.235419 195.210416 730.126316 196.786343 728.978189 198.333505 C 727.830061 199.880666 726.644964 201.401118 725.422897 202.890749 C 724.198775 204.38038 722.941792 205.839191 721.647838 207.265128 C 720.353884 208.693119 719.025014 210.088236 717.661228 211.452532 C 716.299496 212.814774 714.904901 214.142087 713.475391 215.436525 C 712.047934 216.730963 710.589668 217.988418 709.100595 219.210942 C 707.609467 220.433467 706.091639 221.619008 704.543002 222.767565 C 702.996419 223.916122 701.421082 225.025641 699.819044 226.09612 C 698.217006 227.1666 696.588267 228.195987 694.934882 229.188389 C 693.283551 230.178737 691.605519 231.127992 689.906947 232.036153 C 688.208376 232.944315 686.487213 233.811383 684.74551 234.635303 C 683.001753 235.459223 681.241565 236.239995 679.460838 236.977619 C 677.680112 237.715244 675.882954 238.407665 674.069365 239.056939 C 672.253722 239.706213 670.425755 240.310284 668.581358 240.869152 C 666.73696 241.430076 664.880239 241.943742 663.011195 242.41015 C 661.142151 242.878614 659.262837 243.301874 657.3712 243.677878 C 655.481616 244.053881 653.583818 244.382627 651.677803 244.666171 C 649.771789 244.94766 647.859613 245.183946 645.941275 245.372975 C 644.022937 245.562004 642.102546 245.703776 640.178046 245.798291 C 638.253547 245.892805 636.326993 245.940062 634.40044 245.940062 C 632.473887 245.940062 630.547333 245.892805 628.622834 245.798291 C 626.698334 245.703776 624.775889 245.562004 622.857551 245.372975 C 620.941267 245.183946 619.029091 244.94766 617.123077 244.666171 C 615.217062 244.382627 613.31721 244.053881 611.427626 243.677878 C 609.538043 243.301874 607.658729 242.878614 605.789685 242.41015 C 603.920641 241.943742 602.06392 241.430076 600.219522 240.869152 C 598.375125 240.310284 596.545105 239.706213 594.731515 239.056939 C 592.915872 238.407665 591.118714 237.715244 589.340042 236.977619 C 587.559315 236.239995 585.797073 235.459223 584.05537 234.635303 C 582.313667 233.811383 580.592504 232.944315 578.893933 232.036153 C 577.193308 231.127992 575.517329 230.178737 573.863944 229.188389 C 572.210559 228.195987 570.583874 227.1666 568.981836 226.09612 C 567.379798 225.025641 565.804461 223.916122 564.255824 222.767565 C 562.709241 221.619008 561.189359 220.433467 559.700285 219.212997 C 558.211212 217.990472 556.750892 216.730963 555.323436 215.436525 C 553.895979 214.142087 552.501384 212.814774 551.137598 211.452532 C 549.775866 210.088236 548.446996 208.693119 547.153042 207.265128 C 545.859088 205.839191 544.600051 204.38038 543.377983 202.890749 C 542.155916 201.401118 540.970819 199.880666 539.822691 198.333505 C 538.674564 196.786343 537.565461 195.210416 536.495382 193.607778 C 535.423249 192.005141 534.392193 190.377847 533.402216 188.725897 C 532.412239 187.071893 531.461286 185.397342 530.553464 183.696081 C 529.645643 181.996874 528.778899 180.27712 527.955287 178.534765 C 527.131675 176.792411 526.351195 175.031564 525.613847 173.25017 C 524.876499 171.470832 524.182282 169.673001 523.533252 167.858733 C 522.884221 166.044465 522.280376 164.215814 521.719662 162.370726 C 521.161003 160.527693 520.647529 158.670277 520.179241 156.800533 C 519.710953 154.930789 519.287851 153.052826 518.911988 151.162536 C 518.536125 149.272245 518.207502 147.373736 517.924065 145.467008 C 517.640627 143.56028 517.406483 141.649443 517.217525 139.732442 C 517.028567 137.813386 516.886848 135.892275 516.792369 133.967055 C 516.69789 132.04389 516.65065 130.116616 516.65065 128.189341 C 516.65065 126.262066 516.69789 124.336847 516.792369 122.411627 C 516.886848 120.488461 517.028567 118.565296 517.217525 116.648295 C 517.406483 114.731294 517.642681 112.818402 517.924065 110.911674 C 518.207502 109.007001 518.536125 107.108492 518.911988 105.218201 C 519.287851 103.32791 519.710953 101.447893 520.179241 99.578149 C 520.647529 97.71046 521.161003 95.853044 521.719662 94.010011 C 522.280376 92.164923 522.884221 90.336272 523.533252 88.522004 C 524.182282 86.707736 524.876499 84.909905 525.613847 83.128512 C 526.351195 81.349173 527.131675 79.588326 527.955287 77.845971 C 528.778899 76.103616 529.645643 74.381808 530.553464 72.682601 C 531.461286 70.983395 532.412239 69.306789 533.402216 67.654839 C 534.392193 66.000835 535.423249 64.373541 536.495382 62.770904 C 537.565461 61.170321 538.674564 59.594394 539.822691 58.047232 C 540.970819 56.498016 542.155916 54.979619 543.377983 53.489988 C 544.600051 52.000357 545.859088 50.541545 547.153042 49.113554 C 548.446996 47.685563 549.775866 46.290446 551.137598 44.928204 C 552.501384 43.565962 553.895979 42.236595 555.323436 40.942157 C 556.750892 39.649773 558.211212 38.390264 559.700285 37.16774 C 561.189359 35.945215 562.709241 34.759674 564.255824 33.613171 C 565.804461 32.464614 567.379798 31.355096 568.981836 30.284616 C 570.583874 29.214136 572.210559 28.182695 573.863944 27.192347 C 575.517329 26.201999 577.193308 25.252745 578.893933 24.344583 C 580.592504 23.434367 582.313667 22.569354 584.05537 21.745434 C 585.797073 20.921514 587.559315 20.140742 589.340042 19.403117 C 591.118714 18.665493 592.915872 17.973071 594.731515 17.323798 C 596.545105 16.674524 598.375125 16.070453 600.219522 15.50953 C 602.06392 14.950661 603.920641 14.436995 605.789685 13.968532 C 607.658729 13.500068 609.538043 13.078862 611.427626 12.702859 C 613.31721 12.326856 615.217062 11.998109 617.123077 11.714566 C 619.029091 11.431022 620.941267 11.19679 622.857551 11.007761 C 624.775889 10.818732 626.698334 10.676961 628.622834 10.582446 C 630.547333 10.487932 632.473887 10.440674 634.40044 10.440674 C 636.326993 10.440674 638.253547 10.487932 640.178046 10.582446 C 642.102546 10.676961 644.022937 10.818732 645.941275 11.007761 C 647.859613 11.19679 649.771789 11.431022 651.677803 11.714566 C 653.583818 11.998109 655.481616 12.326856 657.3712 12.702859 C 659.262837 13.078862 661.142151 13.500068 663.011195 13.968532 C 664.880239 14.436995 666.73696 14.950661 668.581358 15.50953 C 670.425755 16.070453 672.253722 16.674524 674.069365 17.323798 C 675.882954 17.973071 677.680112 18.665493 679.460838 19.403117 C 681.241565 20.140742 683.001753 20.921514 684.74551 21.745434 C 686.487213 22.569354 688.208376 23.434367 689.906947 24.344583 C 691.605519 25.252745 693.283551 26.201999 694.934882 27.192347 C 696.588267 28.182695 698.217006 29.214136 699.819044 30.284616 C 701.421082 31.355096 702.996419 32.464614 704.543002 33.613171 C 706.091639 34.759674 707.609467 35.945215 709.100595 37.16774 C 710.589668 38.390264 712.047934 39.649773 713.475391 40.942157 C 714.904901 42.236595 716.299496 43.565962 717.661228 44.928204 C 719.025014 46.290446 720.353884 47.685563 721.647838 49.113554 C 722.941792 50.541545 724.198775 52.000357 725.422897 53.489988 C 726.644964 54.979619 727.830061 56.498016 728.978189 58.047232 C 730.126316 59.594394 731.235419 61.170321 732.305498 62.770904 C 733.375577 64.373541 734.406633 66.000835 735.39661 67.654839 C 736.388641 69.306789 737.337541 70.983395 738.245362 72.682601 C 739.155237 74.381808 740.019927 76.103616 740.845593 77.845971 C 741.669205 79.588326 742.449685 81.349173 743.187033 83.128512 C 743.924381 84.909905 744.618598 86.707736 745.267628 88.522004 C 745.916659 90.336272 746.520504 92.164923 747.079164 94.010011 C 747.639877 95.853044 748.153351 97.71046 748.621639 99.578149 C 749.089927 101.447893 749.510975 103.32791 749.886838 105.218201 C 750.262701 107.108492 750.593378 109.007001 750.874761 110.911674 C 751.158199 112.818402 751.394397 114.731294 751.583355 116.648295 C 751.772313 118.565296 751.914032 120.488461 752.008511 122.411627 C 752.10299 124.336847 752.15023 126.262066 752.15023 128.189341 Z M 752.15023 128.189341 " stroke="#000082" stroke-width="4" stroke-opacity="1" stroke-miterlimit="10"/></g><path fill="#000082" d="M 238.785156 375.710938 C 238.785156 376.515625 238.746094 377.320312 238.664062 378.121094 C 238.585938 378.921875 238.46875 379.71875 238.3125 380.507812 C 238.15625 381.296875 237.957031 382.078125 237.726562 382.851562 C 237.492188 383.621094 237.21875 384.378906 236.910156 385.125 C 236.601562 385.867188 236.257812 386.59375 235.878906 387.304688 C 235.5 388.015625 235.085938 388.707031 234.636719 389.375 C 234.1875 390.046875 233.710938 390.691406 233.199219 391.316406 C 232.6875 391.9375 232.144531 392.535156 231.578125 393.105469 C 231.007812 393.675781 230.410156 394.214844 229.785156 394.726562 C 229.164062 395.238281 228.515625 395.714844 227.847656 396.164062 C 227.175781 396.613281 226.484375 397.023438 225.777344 397.40625 C 225.066406 397.785156 224.335938 398.128906 223.59375 398.4375 C 222.847656 398.746094 222.089844 399.015625 221.316406 399.25 C 220.546875 399.484375 219.765625 399.679688 218.976562 399.835938 C 218.183594 399.996094 217.386719 400.113281 216.585938 400.191406 C 215.785156 400.269531 214.980469 400.308594 214.175781 400.308594 C 213.367188 400.308594 212.5625 400.269531 211.761719 400.191406 C 210.960938 400.113281 210.164062 399.996094 209.371094 399.835938 C 208.582031 399.679688 207.800781 399.484375 207.03125 399.25 C 206.257812 399.015625 205.5 398.746094 204.757812 398.4375 C 204.011719 398.128906 203.285156 397.785156 202.574219 397.40625 C 201.863281 397.023438 201.171875 396.613281 200.5 396.164062 C 199.832031 395.714844 199.183594 395.238281 198.5625 394.726562 C 197.9375 394.214844 197.34375 393.675781 196.773438 393.105469 C 196.203125 392.535156 195.660156 391.9375 195.148438 391.316406 C 194.640625 390.691406 194.160156 390.046875 193.710938 389.375 C 193.261719 388.707031 192.851562 388.015625 192.46875 387.304688 C 192.089844 386.59375 191.746094 385.867188 191.4375 385.125 C 191.128906 384.378906 190.859375 383.621094 190.625 382.851562 C 190.390625 382.078125 190.195312 381.296875 190.035156 380.507812 C 189.878906 379.71875 189.761719 378.921875 189.683594 378.121094 C 189.601562 377.320312 189.5625 376.515625 189.5625 375.710938 C 189.5625 374.902344 189.601562 374.097656 189.683594 373.296875 C 189.761719 372.496094 189.878906 371.699219 190.035156 370.910156 C 190.195312 370.121094 190.390625 369.339844 190.625 368.566406 C 190.859375 367.796875 191.128906 367.039062 191.4375 366.292969 C 191.746094 365.550781 192.089844 364.824219 192.46875 364.113281 C 192.851562 363.402344 193.261719 362.710938 193.710938 362.042969 C 194.160156 361.371094 194.636719 360.726562 195.148438 360.101562 C 195.660156 359.480469 196.203125 358.882812 196.773438 358.3125 C 197.34375 357.742188 197.9375 357.203125 198.5625 356.691406 C 199.183594 356.179688 199.832031 355.703125 200.5 355.253906 C 201.171875 354.804688 201.863281 354.394531 202.574219 354.011719 C 203.285156 353.632812 204.011719 353.289062 204.757812 352.980469 C 205.5 352.671875 206.257812 352.402344 207.03125 352.167969 C 207.800781 351.933594 208.582031 351.738281 209.371094 351.582031 C 210.164062 351.421875 210.960938 351.304688 211.761719 351.226562 C 212.5625 351.148438 213.367188 351.109375 214.175781 351.109375 C 214.980469 351.109375 215.785156 351.148438 216.585938 351.226562 C 217.386719 351.304688 218.183594 351.421875 218.976562 351.582031 C 219.765625 351.738281 220.546875 351.933594 221.316406 352.167969 C 222.089844 352.402344 222.847656 352.671875 223.59375 352.980469 C 224.335938 353.289062 225.066406 353.632812 225.773438 354.011719 C 226.484375 354.394531 227.175781 354.804688 227.847656 355.253906 C 228.515625 355.703125 229.164062 356.179688 229.785156 356.691406 C 230.410156 357.203125 231.007812 357.742188 231.574219 358.3125 C 232.144531 358.882812 232.6875 359.480469 233.199219 360.101562 C 233.710938 360.726562 234.1875 361.371094 234.636719 362.042969 C 235.085938 362.710938 235.5 363.402344 235.878906 364.113281 C 236.257812 364.824219 236.601562 365.550781 236.910156 366.292969 C 237.21875 367.039062 237.492188 367.796875 237.726562 368.566406 C 237.957031 369.339844 238.15625 370.121094 238.3125 370.910156 C 238.46875 371.699219 238.585938 372.496094 238.667969 373.296875 C 238.746094 374.097656 238.785156 374.902344 238.785156 375.710938 Z M 238.785156 375.710938 " fill-opacity="1" fill-rule="nonzero"/><g transform="matrix(1, 0, 0, 1, 146, 36)"><g clip-path="url(#5a8f7b13ae)"><g fill="#000082" fill-opacity="1"><g transform="translate(376.954148, 130.217744)"><g><path d="M 27.828125 17.15625 L 24.984375 20.609375 L 2.296875 1.890625 L 5.140625 -1.5625 L 18.046875 9.078125 C 18.046875 9.078125 18.410156 8.90625 19.140625 8.5625 C 19.878906 8.226562 20.894531 7.550781 22.1875 6.53125 C 23.476562 5.507812 24.984375 3.953125 26.703125 1.859375 L 52 -28.8125 L 37.515625 -40.75 L 40.328125 -44.171875 L 59.9375 -28 L 34.203125 3.21875 C 32.203125 5.644531 30.328125 7.5625 28.578125 8.96875 C 26.828125 10.382812 25.410156 11.394531 24.328125 12 C 23.242188 12.613281 22.703125 12.921875 22.703125 12.921875 Z M 27.828125 17.15625 "/></g></g></g><g fill="#000082" fill-opacity="1"><g transform="translate(360.635314, 119.674638)"><g><path d="M 21.859375 -20.21875 C 24.023438 -21.28125 26.023438 -22.625 27.859375 -24.25 C 29.691406 -25.882812 31.351562 -27.640625 32.84375 -29.515625 C 34.332031 -31.398438 35.640625 -33.265625 36.765625 -35.109375 C 37.898438 -36.960938 38.828125 -38.628906 39.546875 -40.109375 L 32.125 -45.0625 L 34.59375 -48.734375 L 46.734375 -40.625 C 44.410156 -34.269531 41.300781 -29.066406 37.40625 -25.015625 C 33.507812 -20.960938 28.832031 -17.84375 23.375 -15.65625 Z M 21.859375 -20.21875 "/></g></g></g><g fill="#000082" fill-opacity="1"><g transform="translate(326.718007, 101.775042)"><g><path d="M 16.671875 6.5625 L 3 3.171875 L 3.96875 -1.046875 L 11.703125 1.109375 C 12.265625 -1.640625 13.039062 -4.691406 14.03125 -8.046875 C 15.03125 -11.398438 16.226562 -14.847656 17.625 -18.390625 C 19.019531 -21.929688 20.578125 -25.375 22.296875 -28.71875 C 24.015625 -32.0625 25.878906 -35.109375 27.890625 -37.859375 C 29.898438 -40.609375 32.019531 -42.851562 34.25 -44.59375 L 28.84375 -47.375 L 30.859375 -51.3125 L 59.390625 -36.65625 L 32.09375 16.484375 L 26.21875 13.46875 L 51.5 -35.734375 L 39.890625 -41.703125 C 38.066406 -40.410156 36.28125 -38.65625 34.53125 -36.4375 C 32.78125 -34.226562 31.117188 -31.722656 29.546875 -28.921875 C 27.984375 -26.128906 26.507812 -23.164062 25.125 -20.03125 C 23.75 -16.894531 22.503906 -13.742188 21.390625 -10.578125 C 20.273438 -7.410156 19.320312 -4.351562 18.53125 -1.40625 C 17.738281 1.53125 17.117188 4.1875 16.671875 6.5625 Z M 16.671875 6.5625 "/></g></g></g><g fill="#000082" fill-opacity="1"><g transform="translate(311.176227, 96.693235)"><g/></g></g><g fill="#000082" fill-opacity="1"><g transform="translate(271.015966, 85.727623)"><g><path d="M 53.359375 -43.328125 L 49.6875 -44.28125 C 49.6875 -44.28125 49.46875 -43.96875 49.03125 -43.34375 C 48.601562 -42.726562 48.0625 -41.671875 47.40625 -40.171875 C 46.757812 -38.671875 46.101562 -36.632812 45.4375 -34.0625 L 34.328125 8.875 L 27.828125 7.203125 L 38.75 -35.015625 C 39.394531 -37.535156 40.0625 -39.601562 40.75 -41.21875 C 41.445312 -42.84375 42.015625 -44.039062 42.453125 -44.8125 C 42.898438 -45.582031 43.125 -45.96875 43.125 -45.96875 L 28.796875 -49.6875 C 28.796875 -49.6875 28.59375 -49.359375 28.1875 -48.703125 C 27.789062 -48.054688 27.285156 -46.988281 26.671875 -45.5 C 26.054688 -44.007812 25.414062 -41.976562 24.75 -39.40625 L 13.640625 3.53125 L 7.140625 1.84375 L 18.0625 -40.375 C 18.707031 -42.894531 19.40625 -44.941406 20.15625 -46.515625 C 20.914062 -48.097656 21.554688 -49.273438 22.078125 -50.046875 C 22.597656 -50.828125 22.859375 -51.21875 22.859375 -51.21875 L 17.78125 -52.53125 L 18.890625 -56.8125 L 54.46875 -47.609375 Z M 53.359375 -43.328125 "/></g></g></g><g fill="#000082" fill-opacity="1"><g transform="translate(251.821233, 84.033055)"><g><path d="M 10.765625 -27.765625 C 12.242188 -29.671875 13.445312 -31.757812 14.375 -34.03125 C 15.3125 -36.300781 16.035156 -38.609375 16.546875 -40.953125 C 17.054688 -43.296875 17.410156 -45.546875 17.609375 -47.703125 C 17.816406 -49.859375 17.925781 -51.753906 17.9375 -53.390625 L 9.078125 -54.578125 L 9.65625 -58.96875 L 24.140625 -57.03125 C 24.835938 -50.289062 24.328125 -44.242188 22.609375 -38.890625 C 20.898438 -33.546875 18.078125 -28.691406 14.140625 -24.328125 Z M 10.765625 -27.765625 "/></g></g></g><g fill="#000082" fill-opacity="1"><g transform="translate(229.208096, 82.969332)"><g><path d="M 1.515625 -4.40625 L 6.90625 -4.140625 C 8.125 -4.078125 9.082031 -4.269531 9.78125 -4.71875 C 10.476562 -5.164062 11 -6.003906 11.34375 -7.234375 C 11.6875 -8.472656 11.914062 -10.21875 12.03125 -12.46875 L 14.125 -54.6875 L 6.75 -55.046875 L 6.96875 -59.453125 L 21 -58.765625 L 18.75 -13.59375 C 18.5625 -9.78125 18.03125 -6.847656 17.15625 -4.796875 C 16.289062 -2.742188 15.082031 -1.335938 13.53125 -0.578125 C 11.988281 0.179688 10.125 0.503906 7.9375 0.390625 L 1.296875 0.0625 Z M 1.515625 -4.40625 "/></g></g></g><g fill="#000082" fill-opacity="1"><g transform="translate(209.260208, 83.803949)"><g><path d="M 0.5625 -59.796875 L 13.90625 -60.25 L 15.9375 -0.546875 L 9.25 -0.3125 L 7.375 -55.59375 L 0.71875 -55.375 Z M 0.5625 -59.796875 "/></g></g></g><g fill="#000082" fill-opacity="1"><g transform="translate(181.39251, 87.312572)"><g><path d="M 26.484375 15.546875 L 29.640625 15.15625 L 30.203125 19.609375 L 20.453125 20.859375 L 10.421875 -57.109375 L -5.046875 -55.125 L -5.609375 -59.515625 L 16.453125 -62.359375 Z M 26.484375 15.546875 "/></g></g></g><g fill="#000082" fill-opacity="1"><g transform="translate(165.299466, 91.25753)"><g/></g></g><g fill="#000082" fill-opacity="1"><g transform="translate(128.69382, 103.149687)"><g><path d="M 16.34375 -7.359375 L 4.359375 0.0625 L 2.03125 -3.578125 L 8.96875 -7.609375 C 7.375 -9.929688 5.722656 -12.617188 4.015625 -15.671875 C 2.316406 -18.722656 0.6875 -21.984375 -0.875 -25.453125 C -2.445312 -28.929688 -3.832031 -32.453125 -5.03125 -36.015625 C -6.226562 -39.578125 -7.109375 -43.035156 -7.671875 -46.390625 C -8.234375 -49.742188 -8.367188 -52.820312 -8.078125 -55.625 L -13.828125 -53.703125 L -15.234375 -57.90625 L 15.171875 -68.125 L 34.203125 -11.5 L 27.9375 -9.390625 L 10.3125 -61.8125 L -2.0625 -57.65625 C -2.40625 -55.445312 -2.390625 -52.941406 -2.015625 -50.140625 C -1.648438 -47.347656 -1.015625 -44.414062 -0.109375 -41.34375 C 0.796875 -38.269531 1.890625 -35.144531 3.171875 -31.96875 C 4.460938 -28.800781 5.851562 -25.710938 7.34375 -22.703125 C 8.832031 -19.691406 10.351562 -16.875 11.90625 -14.25 C 13.46875 -11.625 14.945312 -9.328125 16.34375 -7.359375 Z M 16.34375 -7.359375 "/></g></g></g><g fill="#000082" fill-opacity="1"><g transform="translate(111.341866, 112.016895)"><g><path d="M -5.96875 -29.171875 C -5.757812 -31.566406 -5.875 -33.972656 -6.3125 -36.390625 C -6.75 -38.804688 -7.390625 -41.140625 -8.234375 -43.390625 C -9.078125 -45.640625 -9.992188 -47.722656 -10.984375 -49.640625 C -11.984375 -51.566406 -12.921875 -53.222656 -13.796875 -54.609375 L -21.890625 -50.828125 L -23.78125 -54.828125 L -10.5625 -61.015625 C -6.3125 -55.734375 -3.460938 -50.378906 -2.015625 -44.953125 C -0.566406 -39.523438 -0.320312 -33.910156 -1.28125 -28.109375 Z M -5.96875 -29.171875 "/></g></g></g><g fill="#000082" fill-opacity="1"><g transform="translate(83.643259, 128.05793)"><g><path d="M -4.6875 -66.78125 L 15.828125 -32.46875 C 17.578125 -29.550781 18.960938 -26.945312 19.984375 -24.65625 C 21.015625 -22.375 21.566406 -20.316406 21.640625 -18.484375 C 21.722656 -16.660156 21.226562 -14.972656 20.15625 -13.421875 C 19.09375 -11.867188 17.328125 -10.359375 14.859375 -8.890625 L 2.5 -1.484375 L 0.203125 -5.3125 L 11.1875 -11.890625 C 13.113281 -13.046875 14.375 -14.21875 14.96875 -15.40625 C 15.570312 -16.59375 15.585938 -18.015625 15.015625 -19.671875 C 14.453125 -21.328125 13.40625 -23.4375 11.875 -26 L -8.171875 -59.546875 L -25.609375 -49.125 L -27.890625 -52.921875 Z M -4.6875 -66.78125 "/></g></g></g><g fill="#000082" fill-opacity="1"><g transform="translate(68.660991, 140.139871)"><g><path d="M -33.578125 -49.46875 L -22.859375 -57.4375 L 12.796875 -9.515625 L 7.421875 -5.515625 L -25.59375 -49.890625 L -30.9375 -45.921875 Z M -33.578125 -49.46875 "/></g></g></g><g fill="#000082" fill-opacity="1"><g transform="translate(55.310194, 152.075431)"><g><path d="M 23.5625 4.453125 L 26.890625 1.5625 L 29.84375 4.953125 L 21.484375 12.203125 L -30.0625 -47.15625 L -33.875 -43.84375 L -36.78125 -47.171875 L -27.9375 -54.84375 Z M 23.5625 4.453125 "/></g></g></g></g></g><g transform="matrix(1, 0, 0, 1, 128, 529)"><g clip-path="url(#dc4910d184)"><g fill="#000082" fill-opacity="1"><g transform="translate(447.27139, 88.659835)"><g><path d="M -38.453125 -45.96875 L -30.921875 -53.375 L -9.703125 -31.796875 C -7.972656 -30.046875 -6.179688 -28.34375 -4.328125 -26.6875 C -2.472656 -25.03125 -0.632812 -23.519531 1.1875 -22.15625 C 3.007812 -20.789062 4.753906 -19.65625 6.421875 -18.75 C 8.085938 -17.84375 9.617188 -17.242188 11.015625 -16.953125 C 12.273438 -18.203125 12.976562 -19.726562 13.125 -21.53125 C 13.28125 -23.332031 12.757812 -25.394531 11.5625 -27.71875 C 10.375 -30.039062 8.394531 -32.609375 5.625 -35.421875 L -18.21875 -59.65625 L -21.53125 -56.40625 L -24.625 -59.5625 L -16.625 -67.4375 L 8.59375 -41.796875 C 11.976562 -38.359375 14.550781 -35.328125 16.3125 -32.703125 C 18.070312 -30.078125 19.082031 -27.691406 19.34375 -25.546875 C 19.613281 -23.410156 19.222656 -21.34375 18.171875 -19.34375 C 17.128906 -17.34375 15.484375 -15.234375 13.234375 -13.015625 L 2.890625 -2.84375 L -0.25 -6.03125 L 6.796875 -12.96875 C 4.867188 -13.539062 2.753906 -14.484375 0.453125 -15.796875 C -1.835938 -17.117188 -4.203125 -18.738281 -6.640625 -20.65625 C -9.085938 -22.582031 -11.476562 -24.734375 -13.8125 -27.109375 L -32.3125 -45.796875 L -35.359375 -42.8125 Z M -38.453125 -45.96875 "/></g></g></g><g fill="#000082" fill-opacity="1"><g transform="translate(427.058583, 103.522385)"><g><path d="M -32.21875 -62.75 L -29.203125 -65.109375 L -26.984375 -64.515625 L -24.3125 -60.40625 L -19.046875 -44.921875 L -21.4375 -43.90625 Z M -38.640625 -57.703125 L -35.609375 -60.078125 L -33.421875 -59.46875 L -30.734375 -55.375 L -25.453125 -39.890625 L -27.84375 -38.875 Z M -38.640625 -57.703125 "/></g></g></g><g fill="#000082" fill-opacity="1"><g transform="translate(377.43552, 134.215552)"><g><path d="M 20.703125 -17.4375 L 20.96875 -17.171875 C 22.914062 -18.304688 24.539062 -19.644531 25.84375 -21.1875 C 27.15625 -22.738281 28.03125 -24.570312 28.46875 -26.6875 C 28.914062 -28.8125 28.78125 -31.28125 28.0625 -34.09375 C 27.34375 -36.90625 25.929688 -40.117188 23.828125 -43.734375 L 8.9375 -69.25 L 5.125 -67.03125 L 2.90625 -70.84375 L 12.34375 -76.34375 L 28.5 -48.640625 C 31.34375 -43.765625 33.304688 -39.554688 34.390625 -36.015625 C 35.472656 -32.472656 35.722656 -29.367188 35.140625 -26.703125 C 34.566406 -24.046875 33.207031 -21.632812 31.0625 -19.46875 C 28.914062 -17.3125 26.03125 -15.175781 22.40625 -13.0625 L 6.640625 -3.875 L -21.234375 -51.65625 L -24.59375 -49.6875 L -26.8125 -53.5 L -17.703125 -58.828125 L -17.78125 -58.78125 L 10.234375 -10.921875 L 10.875 -11.28125 C 11.820312 -11.84375 12.675781 -12.660156 13.4375 -13.734375 C 14.195312 -14.816406 14.71875 -16.113281 15 -17.625 C 15.28125 -19.132812 15.234375 -20.820312 14.859375 -22.6875 C 14.492188 -24.5625 13.675781 -26.59375 12.40625 -28.78125 L -6.09375 -60.484375 L -10.09375 -58.15625 L -12.3125 -61.96875 L -2.609375 -67.625 L 14.421875 -38.4375 C 17.109375 -33.832031 19.035156 -29.703125 20.203125 -26.046875 C 21.367188 -22.398438 21.535156 -19.53125 20.703125 -17.4375 Z M 20.703125 -17.4375 "/></g></g></g><g fill="#000082" fill-opacity="1"><g transform="translate(355.922721, 142.295482)"><g/></g></g><g fill="#000082" fill-opacity="1"><g transform="translate(332.491375, 150.202433)"><g><path d="M -2.484375 -29.671875 C -1.984375 -32.023438 -1.804688 -34.425781 -1.953125 -36.875 C -2.109375 -39.332031 -2.46875 -41.726562 -3.03125 -44.0625 C -3.601562 -46.394531 -4.269531 -48.570312 -5.03125 -50.59375 C -5.800781 -52.625 -6.535156 -54.378906 -7.234375 -55.859375 L -15.734375 -53.0625 L -17.125 -57.265625 L -3.25 -61.84375 C 0.320312 -56.09375 2.507812 -50.429688 3.3125 -44.859375 C 4.113281 -39.296875 3.695312 -33.695312 2.0625 -28.0625 Z M -2.484375 -29.671875 "/></g></g></g><g fill="#000082" fill-opacity="1"><g transform="translate(274.845739, 162.069043)"><g><path d="M 25.40625 -9.328125 L 25.5625 -9 C 27.789062 -9.40625 29.78125 -10.109375 31.53125 -11.109375 C 33.289062 -12.109375 34.738281 -13.53125 35.875 -15.375 C 37.007812 -17.21875 37.71875 -19.585938 38 -22.484375 C 38.289062 -25.378906 38.0625 -28.882812 37.3125 -33 L 32.03125 -62.0625 L 27.671875 -61.265625 L 26.875 -65.609375 L 37.625 -67.5625 L 43.375 -36 C 44.382812 -30.445312 44.796875 -25.820312 44.609375 -22.125 C 44.421875 -18.425781 43.597656 -15.425781 42.140625 -13.125 C 40.691406 -10.820312 38.59375 -9.019531 35.84375 -7.71875 C 33.09375 -6.425781 29.648438 -5.398438 25.515625 -4.640625 L 7.5625 -1.375 L -2.34375 -55.796875 L -6.171875 -55.109375 L -6.96875 -59.453125 L 3.40625 -61.328125 L 3.3125 -61.3125 L 13.34375 -6.765625 L 14.0625 -6.90625 C 15.15625 -7.101562 16.238281 -7.578125 17.3125 -8.328125 C 18.394531 -9.085938 19.328125 -10.128906 20.109375 -11.453125 C 20.890625 -12.773438 21.425781 -14.378906 21.71875 -16.265625 C 22.007812 -18.148438 21.929688 -20.335938 21.484375 -22.828125 L 14.90625 -58.9375 L 10.359375 -58.109375 L 9.5625 -62.453125 L 20.59375 -64.46875 L 26.65625 -31.21875 C 27.601562 -25.96875 28.003906 -21.425781 27.859375 -17.59375 C 27.722656 -13.757812 26.90625 -11.003906 25.40625 -9.328125 Z M 25.40625 -9.328125 "/></g></g></g><g fill="#000082" fill-opacity="1"><g transform="translate(238.81344, 162.425077)"><g><path d="M 0.5 -59.765625 L 12.71875 -60.0625 C 15.113281 -60.125 17.082031 -59.828125 18.625 -59.171875 C 20.175781 -58.515625 21.398438 -57.414062 22.296875 -55.875 C 23.203125 -54.332031 23.847656 -52.265625 24.234375 -49.671875 C 24.617188 -47.085938 24.859375 -43.890625 24.953125 -40.078125 L 25.921875 -0.640625 L 19.28125 -0.46875 L 18.25 -42.71875 C 18.175781 -45.695312 17.957031 -48.144531 17.59375 -50.0625 C 17.238281 -51.976562 16.5625 -53.390625 15.5625 -54.296875 C 14.570312 -55.210938 13.109375 -55.648438 11.171875 -55.609375 L 0.609375 -55.34375 Z M 0.5 -59.765625 "/></g></g></g><g fill="#000082" fill-opacity="1"><g transform="translate(191.009315, 157.785518)"><g><path d="M 35.78125 -0.484375 L 40.28125 0.015625 L 39.78125 4.453125 L 29.4375 3.296875 C 29.851562 -0.734375 30.085938 -4.257812 30.140625 -7.28125 C 30.191406 -10.3125 29.890625 -13.066406 29.234375 -15.546875 C 28.585938 -18.023438 27.421875 -20.460938 25.734375 -22.859375 C 25.523438 -23.160156 25.179688 -23.660156 24.703125 -24.359375 C 24.222656 -25.054688 23.707031 -25.828125 23.15625 -26.671875 C 22.601562 -27.515625 22.078125 -28.3125 21.578125 -29.0625 C 21.085938 -29.8125 20.734375 -30.410156 20.515625 -30.859375 C 19.015625 -29.910156 17.785156 -28.832031 16.828125 -27.625 C 15.867188 -26.425781 15.117188 -24.976562 14.578125 -23.28125 C 14.046875 -21.582031 13.640625 -19.476562 13.359375 -16.96875 L 11.8125 -3.171875 L 18.53125 -2.421875 L 18.03125 2.015625 L 5.015625 0.5625 L 6.984375 -17.0625 C 7.515625 -21.769531 8.769531 -25.675781 10.75 -28.78125 C 12.738281 -31.894531 15.242188 -34.191406 18.265625 -35.671875 C 17.328125 -37.453125 16.597656 -39.375 16.078125 -41.4375 C 15.554688 -43.5 15.210938 -45.609375 15.046875 -47.765625 C 14.890625 -49.921875 14.882812 -51.988281 15.03125 -53.96875 L 9.96875 -54.546875 L 10.46875 -58.9375 L 21.015625 -57.75 C 20.765625 -54.632812 20.671875 -51.816406 20.734375 -49.296875 C 20.804688 -46.773438 21.148438 -44.363281 21.765625 -42.0625 C 22.390625 -39.769531 23.382812 -37.410156 24.75 -34.984375 C 26.125 -32.566406 27.960938 -29.890625 30.265625 -26.953125 C 31.179688 -27.234375 32.09375 -27.84375 33 -28.78125 C 33.90625 -29.726562 34.722656 -31.070312 35.453125 -32.8125 C 36.191406 -34.5625 36.710938 -36.785156 37.015625 -39.484375 L 38.34375 -51.359375 L 31.625 -52.109375 L 32.125 -56.5 L 45 -55.0625 L 43.28125 -39.71875 C 42.914062 -36.445312 42.285156 -33.726562 41.390625 -31.5625 C 40.492188 -29.394531 39.347656 -27.601562 37.953125 -26.1875 C 36.554688 -24.78125 34.890625 -23.519531 32.953125 -22.40625 C 34.054688 -20.726562 34.859375 -18.710938 35.359375 -16.359375 C 35.867188 -14.015625 36.144531 -11.484375 36.1875 -8.765625 C 36.226562 -6.046875 36.09375 -3.285156 35.78125 -0.484375 Z M 35.78125 -0.484375 "/></g></g></g><g fill="#000082" fill-opacity="1"><g transform="translate(157.620814, 149.184286)"><g><path d="M 22.765625 -55.875 L 40.265625 -51.484375 C 40.265625 -51.484375 40.234375 -51.082031 40.171875 -50.28125 C 40.109375 -49.488281 40 -48.472656 39.84375 -47.234375 C 39.695312 -45.992188 39.515625 -44.648438 39.296875 -43.203125 C 39.078125 -41.753906 38.800781 -40.359375 38.46875 -39.015625 C 37.6875 -35.921875 36.757812 -33.316406 35.6875 -31.203125 C 34.625 -29.097656 33.472656 -27.316406 32.234375 -25.859375 C 30.992188 -24.398438 29.722656 -23.09375 28.421875 -21.9375 C 27.117188 -20.789062 25.816406 -19.625 24.515625 -18.4375 C 23.222656 -17.257812 21.992188 -15.914062 20.828125 -14.40625 C 19.660156 -12.894531 18.601562 -11.039062 17.65625 -8.84375 C 16.71875 -6.65625 15.957031 -3.957031 15.375 -0.75 L 21.765625 0.859375 L 20.671875 5.1875 L 8.921875 2.234375 C 8.921875 2.234375 8.960938 1.894531 9.046875 1.21875 C 9.128906 0.539062 9.253906 -0.269531 9.421875 -1.21875 C 10.171875 -4.957031 11.066406 -8.125 12.109375 -10.71875 C 13.160156 -13.320312 14.289062 -15.523438 15.5 -17.328125 C 16.707031 -19.128906 17.945312 -20.675781 19.21875 -21.96875 C 20.488281 -23.257812 21.742188 -24.460938 22.984375 -25.578125 C 24.222656 -26.691406 25.410156 -27.835938 26.546875 -29.015625 C 27.691406 -30.203125 28.710938 -31.59375 29.609375 -33.1875 C 30.515625 -34.789062 31.253906 -36.734375 31.828125 -39.015625 C 32.273438 -40.835938 32.625 -42.472656 32.875 -43.921875 C 33.132812 -45.367188 33.304688 -46.507812 33.390625 -47.34375 C 33.484375 -48.1875 33.53125 -48.609375 33.53125 -48.609375 L 15.4375 -53.140625 L 19.546875 -69.484375 L 25.796875 -67.921875 Z M 22.765625 -55.875 "/></g></g></g><g fill="#000082" fill-opacity="1"><g transform="translate(137.186062, 141.843316)"><g/></g></g><g fill="#000082" fill-opacity="1"><g transform="translate(110.512626, 130.274632)"><g><path d="M 39.4375 -47.828125 L 21.078125 9.390625 L 15.53125 6.90625 L 18.375 -2.40625 C 18.375 -2.40625 18.332031 -2.421875 18.25 -2.453125 C 18.175781 -2.484375 18.140625 -2.5 18.140625 -2.5 C 15.828125 0.03125 13.40625 1.601562 10.875 2.21875 C 8.34375 2.84375 5.828125 2.597656 3.328125 1.484375 L 1.328125 0.59375 L 3.703125 -4.734375 L 6.3125 -3.578125 C 8.25 -2.710938 9.992188 -2.410156 11.546875 -2.671875 C 13.109375 -2.941406 14.503906 -3.628906 15.734375 -4.734375 C 16.960938 -5.835938 18.0625 -7.222656 19.03125 -8.890625 C 20.007812 -10.566406 20.882812 -12.363281 21.65625 -14.28125 C 22.425781 -16.195312 23.144531 -18.09375 23.8125 -19.96875 C 24.488281 -22.007812 25.21875 -24.210938 26 -26.578125 C 26.78125 -28.953125 27.535156 -31.289062 28.265625 -33.59375 C 28.992188 -35.90625 29.664062 -38.003906 30.28125 -39.890625 C 30.894531 -41.785156 31.375 -43.3125 31.71875 -44.46875 C 32.0625 -45.625 32.234375 -46.203125 32.234375 -46.203125 L 26.15625 -48.90625 L 27.953125 -52.953125 Z M 39.4375 -47.828125 "/></g></g></g><g fill="#000082" fill-opacity="1"><g transform="translate(81.116319, 113.705432)"><g><path d="M 37.140625 -47.546875 L 52.78125 -38.546875 C 52.78125 -38.546875 52.640625 -38.171875 52.359375 -37.421875 C 52.085938 -36.679688 51.707031 -35.734375 51.21875 -34.578125 C 50.738281 -33.421875 50.195312 -32.175781 49.59375 -30.84375 C 48.988281 -29.507812 48.34375 -28.238281 47.65625 -27.03125 C 46.0625 -24.269531 44.460938 -22.019531 42.859375 -20.28125 C 41.253906 -18.539062 39.65625 -17.140625 38.0625 -16.078125 C 36.476562 -15.015625 34.898438 -14.109375 33.328125 -13.359375 C 31.765625 -12.609375 30.195312 -11.84375 28.625 -11.0625 C 27.050781 -10.28125 25.492188 -9.320312 23.953125 -8.1875 C 22.421875 -7.050781 20.90625 -5.554688 19.40625 -3.703125 C 17.90625 -1.847656 16.429688 0.539062 14.984375 3.46875 L 20.703125 6.75 L 18.46875 10.625 L 7.96875 4.59375 C 7.96875 4.59375 8.097656 4.273438 8.359375 3.640625 C 8.628906 3.003906 8.976562 2.253906 9.40625 1.390625 C 11.15625 -1.992188 12.882812 -4.796875 14.59375 -7.015625 C 16.300781 -9.234375 17.976562 -11.046875 19.625 -12.453125 C 21.28125 -13.859375 22.894531 -15.003906 24.46875 -15.890625 C 26.039062 -16.785156 27.578125 -17.597656 29.078125 -18.328125 C 30.585938 -19.066406 32.046875 -19.847656 33.453125 -20.671875 C 34.867188 -21.503906 36.226562 -22.566406 37.53125 -23.859375 C 38.84375 -25.148438 40.085938 -26.816406 41.265625 -28.859375 C 42.191406 -30.484375 42.972656 -31.957031 43.609375 -33.28125 C 44.253906 -34.601562 44.734375 -35.65625 45.046875 -36.4375 C 45.367188 -37.226562 45.53125 -37.625 45.53125 -37.625 L 29.359375 -46.921875 L 37.765625 -61.515625 L 43.34375 -58.3125 Z M 37.140625 -47.546875 "/></g></g></g><g fill="#000082" fill-opacity="1"><g transform="translate(60.657584, 98.957536)"><g><path d="M 22.453125 -19.546875 C 24.648438 -20.546875 26.691406 -21.832031 28.578125 -23.40625 C 30.460938 -24.976562 32.175781 -26.679688 33.71875 -28.515625 C 35.257812 -30.347656 36.625 -32.171875 37.8125 -33.984375 C 39 -35.804688 39.976562 -37.445312 40.75 -38.90625 L 33.46875 -44.078125 L 36.03125 -47.671875 L 47.9375 -39.203125 C 45.414062 -32.921875 42.144531 -27.8125 38.125 -23.875 C 34.113281 -19.945312 29.351562 -16.972656 23.84375 -14.953125 Z M 22.453125 -19.546875 "/></g></g></g><g fill="#000082" fill-opacity="1"><g transform="translate(35.000443, 77.289819)"><g><path d="M 45.53125 -39.578125 L 59.171875 -27.75 C 59.171875 -27.75 58.960938 -27.410156 58.546875 -26.734375 C 58.140625 -26.054688 57.585938 -25.195312 56.890625 -24.15625 C 56.191406 -23.113281 55.414062 -21.992188 54.5625 -20.796875 C 53.71875 -19.609375 52.84375 -18.488281 51.9375 -17.4375 C 49.851562 -15.03125 47.851562 -13.125 45.9375 -11.71875 C 44.03125 -10.3125 42.195312 -9.238281 40.4375 -8.5 C 38.675781 -7.769531 36.953125 -7.179688 35.265625 -6.734375 C 33.578125 -6.296875 31.890625 -5.84375 30.203125 -5.375 C 28.515625 -4.914062 26.8125 -4.273438 25.09375 -3.453125 C 23.375 -2.628906 21.597656 -1.457031 19.765625 0.0625 C 17.929688 1.59375 16.023438 3.660156 14.046875 6.265625 L 19.015625 10.59375 L 16.09375 13.96875 L 6.953125 6.03125 C 6.953125 6.03125 7.140625 5.742188 7.515625 5.171875 C 7.890625 4.609375 8.375 3.941406 8.96875 3.171875 C 11.332031 0.171875 13.5625 -2.25 15.65625 -4.09375 C 17.757812 -5.945312 19.757812 -7.40625 21.65625 -8.46875 C 23.550781 -9.539062 25.351562 -10.363281 27.0625 -10.9375 C 28.78125 -11.507812 30.445312 -12.015625 32.0625 -12.453125 C 33.675781 -12.890625 35.253906 -13.375 36.796875 -13.90625 C 38.335938 -14.445312 39.875 -15.226562 41.40625 -16.25 C 42.9375 -17.269531 44.472656 -18.671875 46.015625 -20.453125 C 47.242188 -21.867188 48.296875 -23.164062 49.171875 -24.34375 C 50.054688 -25.53125 50.722656 -26.472656 51.171875 -27.171875 C 51.628906 -27.878906 51.859375 -28.234375 51.859375 -28.234375 L 37.765625 -40.453125 L 48.796875 -53.1875 L 53.65625 -48.96875 Z M 45.53125 -39.578125 "/></g></g></g><g fill="#000082" fill-opacity="1"><g transform="translate(17.737467, 58.873016)"><g><path d="M 25.78125 -14.90625 C 28.125 -15.46875 30.367188 -16.335938 32.515625 -17.515625 C 34.671875 -18.703125 36.679688 -20.046875 38.546875 -21.546875 C 40.421875 -23.054688 42.109375 -24.585938 43.609375 -26.140625 C 45.117188 -27.703125 46.390625 -29.125 47.421875 -30.40625 L 41.265625 -36.875 L 44.46875 -39.921875 L 54.53125 -29.34375 C 50.863281 -23.644531 46.6875 -19.25 42 -16.15625 C 37.3125 -13.0625 32.066406 -11.050781 26.265625 -10.125 Z M 25.78125 -14.90625 "/></g></g></g></g></g></svg>